<svg xmlns="http://www.w3.org/2000/svg" viewBox="0 0 48 48">
    <path d="M 11,6 A 6,6 0 0 1 17,0 L 31,0 A 6,6 0 0 1 37,6 L 37,12 31,12 31,6 17,6 17,12 11,12 Z" style="z-index: 0;fill: #DFDFDF;"/>
    <path d="M 0,14 A 2,2 0 0 1 2,12 L 46,12 A 2,2 0 0 1 48,14 L 48,24 0,24 Z" style="z-index: 0;fill: #C0C0C0;"/>
    <path d="M 0, 24, 48, 24, 48, 36, 0, 36 Z" style="z-index: 0;fill: #7B7B7B;"/>
    <path d="M 0,36 48,36 48,42 A 6,6 0 0 1 42,48 L 6,48 A 6,6 0 0 1 0,42 Z" style="z-index: 0;fill: #5F5F5F;"/>
    <path d="M 17.04,20.04 31.68,20.04 31.68,21.12 20.4,37.56 31.44,37.56 31.44,40.08 16.2,40.08 16.2,38.88 27.48,22.56 17.04,22.56" style="z-index: 1;fill: #35E48E;"/>
</svg>